<svg width="1051" height="355" viewBox="0 0 1051 355" fill="none" xmlns="http://www.w3.org/2000/svg">
  <path d="M765 266.5L764.72 265.54L765 266.5ZM1047.46 1.15678C1047.27 0.638097 1046.69 0.371381 1046.17 0.561043L1037.72 3.65212C1037.2 3.84182 1036.94 4.41606 1037.13 4.93475C1037.32 5.45344 1037.89 5.72015 1038.41 5.53046L1045.92 2.78285L1048.67 10.2962C1048.86 10.8149 1049.43 11.0816 1049.95 10.8919C1050.47 10.7022 1050.74 10.128 1050.55 9.60932L1047.46 1.15678ZM0.499978 353C0.486587 354 0.488401 354 0.491921 354C0.495369 354 0.500593 354 0.507483 354C0.521261 354 0.541841 354.001 0.569189 354.001C0.623884 354.002 0.705648 354.003 0.814204 354.004C1.03132 354.006 1.3556 354.01 1.78484 354.014C2.64333 354.023 3.92166 354.034 5.60214 354.045C8.9631 354.066 13.9327 354.085 20.3694 354.077C33.2429 354.061 51.9851 353.934 75.4641 353.492C122.422 352.609 188.329 350.468 264.129 345.435C415.714 335.371 606.925 313.741 765.281 267.46L764.72 265.54C606.575 311.759 415.536 333.379 263.996 343.44C188.234 348.47 122.36 350.61 75.4265 351.492C51.9602 351.934 33.2297 352.061 20.3669 352.077C13.9354 352.085 8.97094 352.066 5.61486 352.045C3.93682 352.034 2.66089 352.023 1.80474 352.014C1.37667 352.01 1.05355 352.007 0.83758 352.004C0.729598 352.003 0.648405 352.002 0.594277 352.001C0.567213 352.001 0.546916 352.001 0.53342 352C0.526672 352 0.52166 352 0.518282 352C0.514973 352 0.51337 352 0.499978 353ZM765.281 267.46C857.226 240.588 927.764 174.157 975.287 114.532C999.055 84.7098 1017.08 56.566 1029.17 35.8766C1035.22 25.5312 1039.78 17.0481 1042.83 11.1487C1044.35 8.19895 1045.5 5.89505 1046.27 4.32713C1046.65 3.54317 1046.94 2.9432 1047.13 2.53853C1047.23 2.33616 1047.3 2.18263 1047.35 2.07931C1047.37 2.02768 1047.39 1.98857 1047.41 1.96218C1047.41 1.94902 1047.42 1.93902 1047.42 1.93222C1047.42 1.92882 1047.42 1.92613 1047.42 1.92443C1047.42 1.92255 1047.42 1.92148 1046.52 1.50023C1045.61 1.07898 1045.61 1.07954 1045.61 1.08085C1045.61 1.08237 1045.61 1.08452 1045.61 1.08756C1045.6 1.09363 1045.6 1.10288 1045.59 1.11532C1045.58 1.14022 1045.56 1.17784 1045.54 1.22801C1045.49 1.32835 1045.42 1.4789 1045.33 1.67821C1045.14 2.07685 1044.85 2.67059 1044.47 3.44824C1043.71 5.00348 1042.57 7.29417 1041.05 10.2302C1038.02 16.1022 1033.47 24.555 1027.45 34.8676C1015.39 55.4941 997.418 83.5546 973.723 113.285C926.316 172.765 856.097 238.834 764.72 265.54L765.281 267.46Z" fill="#da4453"/>
</svg>