<svg width="144" height="144" viewBox="0 0 195 195" fill="none" xmlns="http://www.w3.org/2000/svg"><path fill-rule="evenodd" clip-rule="evenodd" d="M53.768 4.385v13.373c0 1.952 1.492 3.444 3.444 3.444h6.686c1.952 0 3.444-1.492 3.444-3.444v-6.686c0-1.952-1.492-3.444-3.444-3.444h-3.243V4.385c0-1.952-1.492-3.444-3.444-3.444-1.95 0-3.443 1.492-3.443 3.444Zm16.817 3.444h3.243v3.243c0 1.951 1.492 3.443 3.444 3.443 1.951 0 3.444-1.492 3.444-3.443V7.829h9.93c1.95 0 3.443-1.493 3.443-3.444 0-1.952-1.492-3.444-3.444-3.444h-20.06c-1.951 0-3.444 1.492-3.444 3.444 0 1.951 1.493 3.444 3.444 3.444Zm33.434 0a3.444 3.444 0 1 0 0-6.888 3.444 3.444 0 0 0 0 6.888Zm9.93-.201V4.385c0-1.952 1.492-3.444 3.444-3.444h6.686c1.952 0 3.444 1.492 3.444 3.444 0 1.951-1.492 3.444-3.444 3.444h-3.243v3.243c0 1.951-1.492 3.443-3.443 3.443h-3.243v3.243c0 1.952-1.493 3.444-3.444 3.444-1.952 0-3.444-1.492-3.444-3.444v-6.686c0-1.952 1.492-3.444 3.444-3.444h3.243Zm26.948-3.243a3.444 3.444 0 1 1-6.888 0 3.444 3.444 0 0 1 6.888 0Zm-43.565 10.13a3.444 3.444 0 1 0 0-6.887 3.444 3.444 0 0 0 0 6.887Zm29.991 16.617v-20.06c0-1.952 1.492-3.444 3.443-3.444 1.952 0 3.444 1.492 3.444 3.444v3.243h3.243c1.951 0 3.444 1.492 3.444 3.443 0 1.952-1.493 3.444-3.444 3.444h-3.243v6.486h3.243c1.951 0 3.444 1.493 3.444 3.444 0 1.951-1.493 3.444-3.444 3.444h-6.687c-1.951 0-3.443-1.492-3.443-3.444Zm-43.364-3.243h3.243v3.243c0 1.951 1.492 3.444 3.444 3.444h9.929v3.243c0 1.951 1.493 3.444 3.444 3.444h3.243v3.243c0 1.951 1.492 3.443 3.444 3.443 1.951 0 3.444-1.492 3.444-3.443v-6.687c0-1.952-1.493-3.444-3.444-3.444h-3.243v-9.93c0-1.951-1.493-3.444-3.444-3.444-1.951 0-3.444 1.493-3.444 3.444v3.243h-6.486v-3.243c0-1.951-1.492-3.444-3.444-3.444H83.96c-1.952 0-3.444 1.493-3.444 3.444 0 1.952 1.492 3.444 3.444 3.444Zm36.877-3.444a3.443 3.443 0 1 1-6.886.002 3.443 3.443 0 0 1 6.886-.002Zm-56.938 10.13a3.444 3.444 0 1 0 0-6.887 3.444 3.444 0 0 0 0 6.888Zm13.374 0a3.444 3.444 0 1 0 0-6.887 3.444 3.444 0 0 0 0 6.888ZM53.768 37.82v23.303h-3.243c-1.952 0-3.444 1.493-3.444 3.444v3.243h-3.243c-1.952 0-3.444 1.492-3.444 3.444 0 1.951 1.492 3.444 3.444 3.444h6.687c1.951 0 3.443-1.493 3.443-3.444V68.01h3.243c1.952 0 3.444-1.493 3.444-3.444v-9.93h13.173v6.486h-3.243c-1.951 0-3.444 1.493-3.444 3.444 0 1.951 1.493 3.444 3.444 3.444H83.96c1.951 0 3.443-1.493 3.443-3.444 0-1.951-1.492-3.444-3.443-3.444h-3.243v-6.486h9.93c1.95 0 3.443-1.492 3.443-3.444 0-1.951-1.492-3.443-3.444-3.443h-3.243v-3.243c0-1.952-1.492-3.444-3.443-3.444-1.952 0-3.444 1.492-3.444 3.444v3.243h-6.486v-9.93c0-1.952-1.492-3.444-3.444-3.444-1.951 0-3.444 1.492-3.444 3.444v9.93h-6.486v-9.93c0-1.952-1.492-3.444-3.444-3.444-1.95 0-3.443 1.492-3.443 3.444Zm66.868 6.687v-6.687c0-1.952 1.492-3.444 3.443-3.444 1.952 0 3.444 1.492 3.444 3.444v6.687c0 1.951-1.492 3.443-3.444 3.443-1.951 0-3.443-1.492-3.443-3.443Zm-19.86 0a3.444 3.444 0 1 1-6.887 0 3.444 3.444 0 0 1 6.887 0Zm40.121 0a3.444 3.444 0 1 1-6.888 0 3.444 3.444 0 0 1 6.888 0Zm-33.434 13.373v-6.687c0-1.951-1.493-3.443-3.444-3.443-1.951 0-3.444 1.492-3.444 3.443v3.243h-3.243c-1.951 0-3.443 1.493-3.443 3.444 0 1.952 1.492 3.444 3.443 3.444h6.687c1.951 0 3.444-1.492 3.444-3.444Zm-60.181 0a3.444 3.444 0 1 1-6.888 0 3.444 3.444 0 0 1 6.888 0Zm80.241 0a3.444 3.444 0 1 1-6.888 0 3.444 3.444 0 0 1 6.888 0Zm-16.817 10.13a3.444 3.444 0 1 0 0-6.887 3.444 3.444 0 0 0 0 6.888Zm-50.251 3.244c0-1.952 1.492-3.444 3.443-3.444 1.952 0 3.444 1.492 3.444 3.444v6.687c0 1.951-1.492 3.443-3.444 3.443-1.951 0-3.443-1.492-3.443-3.443v-6.687Zm-40.121-9.93H17.09c-1.952 0-3.444-1.492-3.444-3.444 0-1.951 1.492-3.444 3.444-3.444h13.373c1.952 0 3.444 1.493 3.444 3.444 0 1.952-1.492 3.444-3.444 3.444h-3.243v3.243c0 1.951-1.492 3.444-3.444 3.444-1.95 0-3.443-1.493-3.443-3.444v-3.243Zm-20.06 9.93c0-1.952 1.492-3.444 3.443-3.444H6.96v-3.243c0-1.951 1.493-3.444 3.444-3.444 1.951 0 3.444 1.493 3.444 3.444v3.243h3.243c1.951 0 3.443 1.492 3.443 3.444v3.243h6.487v-3.243c0-1.952 1.492-3.444 3.443-3.444 1.952 0 3.444 1.492 3.444 3.444v3.243h3.243c1.951 0 3.444 1.492 3.444 3.444v3.243h3.243c1.951 0 3.444 1.492 3.444 3.443 0 1.952-1.493 3.444-3.444 3.444H27.22v6.486h19.86v-3.243c0-1.951 1.492-3.444 3.444-3.444h13.373c1.952 0 3.444 1.493 3.444 3.444v13.374c0 1.951-1.492 3.443-3.444 3.443h-3.243v9.93c0 1.952-1.492 3.444-3.444 3.444-1.95 0-3.443-1.492-3.443-3.444v-9.93h-3.243c-1.952 0-3.444-1.492-3.444-3.443v-3.243h-6.486v3.243c0 1.951-1.492 3.443-3.444 3.443h-6.687c-1.951 0-3.443-1.492-3.443-3.443v-3.243h-3.244c-1.95 0-3.443-1.493-3.443-3.444V81.383H17.09c-1.952 0-3.444-1.492-3.444-3.443v-3.243H7.161v3.243c0 1.951-1.492 3.443-3.444 3.443-1.951 0-3.444-1.492-3.444-3.443v-6.687ZM6.96 84.626v3.243H3.717c-1.951 0-3.444 1.493-3.444 3.444 0 1.952 1.493 3.444 3.444 3.444H6.96v9.93c0 1.951 1.493 3.443 3.444 3.443 1.951 0 3.444-1.492 3.444-3.443v-20.06c0-1.952-1.493-3.444-3.444-3.444-1.951 0-3.444 1.492-3.444 3.443ZM.273 111.374v26.747c0 1.951 1.493 3.443 3.444 3.443 1.952 0 3.444-1.492 3.444-3.443v-26.747c0-1.952-1.492-3.444-3.444-3.444-1.951 0-3.444 1.492-3.444 3.444Zm16.818-3.444c-1.952 0-3.444 1.492-3.444 3.444v13.373c0 1.952 1.492 3.444 3.444 3.444h3.243v6.486H17.09c-1.952 0-3.444 1.492-3.444 3.444 0 1.951 1.492 3.443 3.444 3.443h26.747c1.951 0 3.444-1.492 3.444-3.443 0-1.952-1.493-3.444-3.444-3.444h-3.243v-3.243c0-1.951-1.492-3.444-3.444-3.444-1.951 0-3.444 1.493-3.444 3.444v3.243h-6.486v-6.486h3.243c1.952 0 3.444-1.492 3.444-3.444v-6.687c0-1.951-1.492-3.443-3.444-3.443h-9.93v-3.243c0-1.952-1.492-3.444-3.443-3.444Zm30.19 3.444a3.444 3.444 0 1 1-6.887-.001 3.444 3.444 0 0 1 6.888.001Zm0 13.373a3.444 3.444 0 1 1-6.887 0 3.444 3.444 0 0 1 6.888 0Zm26.748 13.374c0 1.951-1.492 3.443-3.444 3.443h-9.93v3.244c0 1.951-1.492 3.443-3.444 3.443-1.95 0-3.443-1.492-3.443-3.443v-6.687c0-1.952 1.492-3.444 3.444-3.444h9.93v-3.243c0-1.951 1.492-3.444 3.443-3.444 1.952 0 3.444 1.493 3.444 3.444v6.687Zm56.737-23.304a3.444 3.444 0 1 0 0-6.888 3.444 3.444 0 0 0 0 6.888Zm10.131 3.243a3.444 3.444 0 1 1-6.888 0 3.444 3.444 0 0 1 6.888 0Zm39.92 0c0 1.952 1.492 3.444 3.444 3.444h6.686c1.952 0 3.444-1.492 3.444-3.444 0-1.951-1.492-3.443-3.444-3.443h-6.686c-1.952 0-3.444 1.492-3.444 3.443Zm-26.547 33.434a3.443 3.443 0 1 1-6.886.002 3.443 3.443 0 0 1 6.886-.002Zm-6.887-16.817V118.06c0-1.951 1.492-3.443 3.444-3.443H164.2c1.952 0 3.444 1.492 3.444 3.443 0 1.952-1.492 3.444-3.444 3.444h-3.243v13.173h3.243c1.952 0 3.444 1.492 3.444 3.444v3.243h3.243c1.951 0 3.444 1.492 3.444 3.444 0 1.951-1.493 3.443-3.444 3.443h-3.243v6.486h3.243c1.951 0 3.444 1.493 3.444 3.444v3.243h6.486v-3.243c0-1.951 1.492-3.444 3.444-3.444h6.686c1.952 0 3.444 1.493 3.444 3.444 0 1.952-1.492 3.444-3.444 3.444h-3.243v3.243c0 1.951-1.492 3.444-3.443 3.444h-3.243v3.243c0 1.951-1.493 3.443-3.444 3.443h-6.687c-1.951 0-3.444-1.492-3.444-3.443v-3.243h-6.486v6.486h3.243c1.952 0 3.444 1.492 3.444 3.444v13.373c0 1.952-1.492 3.444-3.444 3.444-1.951 0-3.443-1.492-3.443-3.444v-9.93h-13.173v9.93c0 1.952-1.493 3.444-3.444 3.444-1.952 0-3.444-1.492-3.444-3.444v-9.93h-16.617c-1.951 0-3.443-1.492-3.443-3.443v-3.244h-6.486v3.244c0 1.951-1.493 3.443-3.444 3.443h-6.687c-1.951 0-3.444-1.492-3.444-3.443v-3.244h-3.243c-1.951 0-3.443-1.492-3.443-3.443 0-1.952 1.492-3.444 3.443-3.444h3.243v-16.617c0-1.951 1.493-3.443 3.444-3.443 1.951 0 3.444 1.492 3.444 3.443v16.617h6.486v-16.617c0-1.951 1.492-3.443 3.444-3.443 1.951 0 3.443 1.492 3.443 3.443v9.93h3.243c1.952 0 3.444 1.493 3.444 3.444v3.243h6.486v-6.486h-3.243c-1.951 0-3.443-1.492-3.443-3.444v-16.617h-3.244c-1.951 0-3.443-1.492-3.443-3.443v-6.687c0-1.951 1.492-3.444 3.443-3.444h3.244v-3.243c0-1.951 1.492-3.444 3.443-3.444 1.952 0 3.444 1.493 3.444 3.444v3.243h3.243c1.951 0 3.444 1.493 3.444 3.444v3.243h6.486Zm-6.486 6.887h19.86v19.86h-19.86v-19.86Zm6.687 33.234h6.486v-6.486h-6.486v6.486Zm19.859-50.051c0-1.951 1.493-3.444 3.444-3.444 1.951 0 3.444 1.493 3.444 3.444v6.687c0 1.951-1.493 3.444-3.444 3.444-1.951 0-3.444-1.493-3.444-3.444v-6.687Zm-73.554 13.374v-6.687c0-1.951 1.492-3.444 3.443-3.444 1.952 0 3.444 1.493 3.444 3.444v3.243h6.486v-3.243c0-1.951 1.492-3.444 3.444-3.444 1.951 0 3.444 1.493 3.444 3.444v13.374c0 1.951-1.493 3.443-3.444 3.443-1.952 0-3.444-1.492-3.444-3.443v-3.244h-9.93c-1.951 0-3.443-1.492-3.443-3.443Zm93.815-6.687a3.444 3.444 0 1 1-6.888 0 3.444 3.444 0 0 1 6.888 0ZM83.959 148.251c1.951 0 3.443-1.492 3.443-3.443v-6.687c0-1.952-1.492-3.444-3.443-3.444-1.952 0-3.444 1.492-3.444 3.444v3.243h-3.243c-1.952 0-3.444 1.492-3.444 3.444v3.243h-3.243c-1.951 0-3.444 1.492-3.444 3.443v3.243h-3.243c-1.951 0-3.443 1.493-3.443 3.444 0 1.952 1.492 3.444 3.443 3.444h3.243v16.617c0 1.951 1.493 3.443 3.444 3.443h3.243v3.243c0 1.952 1.492 3.444 3.444 3.444h3.243v3.243c0 1.952 1.492 3.444 3.444 3.444h26.747c1.951 0 3.444-1.492 3.444-3.444 0-1.951-1.493-3.444-3.444-3.444H87.402v-16.616c0-1.952-1.492-3.444-3.443-3.444-1.952 0-3.444 1.492-3.444 3.444v3.243h-6.486v-6.486h3.243c1.951 0 3.444-1.493 3.444-3.444v-16.617h3.243Zm97.059-10.13a3.443 3.443 0 1 1-6.886 0 3.443 3.443 0 0 1 6.886 0Zm9.929 10.13a3.444 3.444 0 1 0 0-6.888 3.444 3.444 0 0 0 0 6.888Zm-100.302 6.687a3.444 3.444 0 1 0 0-6.888 3.444 3.444 0 0 0 0 6.888Zm-33.433 6.486c-1.952 0-3.444 1.493-3.444 3.444v13.374c0 1.951 1.492 3.443 3.444 3.443 1.95 0 3.443-1.492 3.443-3.443v-13.374c0-1.951-1.492-3.444-3.444-3.444Zm36.877 3.444a3.444 3.444 0 1 1-6.888 0 3.444 3.444 0 0 1 6.888 0Zm90.172 9.93c-1.952 0-3.444 1.492-3.444 3.444v6.686c0 1.952 1.492 3.444 3.444 3.444 1.951 0 3.443-1.492 3.443-3.444v-6.686c0-1.952-1.492-3.444-3.443-3.444Zm-116.919 10.13a3.444 3.444 0 1 1-6.888 0 3.444 3.444 0 0 1 6.888 0Zm113.676 6.687a3.444 3.444 0 1 1-6.888 0 3.444 3.444 0 0 1 6.888 0ZM137.453 61.323h9.93v6.486h-9.93c-1.951 0-3.444 1.492-3.444 3.444 0 1.951 1.493 3.444 3.444 3.444h3.243v6.486h-3.243c-1.951 0-3.444 1.492-3.444 3.443v3.243h-3.243c-1.951 0-3.443 1.493-3.443 3.444 0 1.952 1.492 3.444 3.443 3.444h9.93v9.93c0 1.951 1.492 3.443 3.444 3.443 1.951 0 3.444-1.492 3.444-3.443v-9.93h3.243c1.951 0 3.443-1.492 3.443-3.444 0-1.951-1.492-3.444-3.443-3.444h-3.243v-6.486h3.243c1.951 0 3.443-1.492 3.443-3.443v-3.243h6.487v3.243c0 1.951 1.492 3.443 3.443 3.443h6.687c1.951 0 3.444-1.492 3.444-3.443 0-1.952-1.493-3.444-3.444-3.444h-3.243V68.01h6.486v3.243c0 1.951 1.492 3.444 3.444 3.444 1.951 0 3.444-1.493 3.444-3.444v-9.93h6.486v3.243c0 1.951 1.492 3.444 3.443 3.444 1.952 0 3.444-1.493 3.444-3.444v-6.687c0-1.951-1.492-3.444-3.444-3.444h-13.373c-1.952 0-3.444 1.493-3.444 3.444v3.243h-13.173V57.88c0-1.951-1.492-3.444-3.444-3.444h-20.06c-1.951 0-3.444 1.493-3.444 3.444 0 1.952 1.493 3.444 3.444 3.444Zm43.364 26.747h-3.243c-1.952 0-3.444-1.492-3.444-3.444 0-1.951 1.492-3.443 3.444-3.443h3.243V77.94c0-1.952 1.492-3.444 3.444-3.444 1.951 0 3.443 1.492 3.443 3.444v3.243h3.243c1.952 0 3.444 1.492 3.444 3.443v6.687c0 1.952-1.492 3.444-3.444 3.444h-3.243v9.93c0 1.951-1.492 3.443-3.443 3.443-1.952 0-3.444-1.492-3.444-3.443V88.07Zm-23.304 0a3.444 3.444 0 1 0 0-6.888 3.444 3.444 0 0 0 0 6.888Zm3.244 3.243c0 1.952 1.492 3.444 3.443 3.444h6.687c1.951 0 3.444-1.492 3.444-3.444 0-1.951-1.493-3.444-3.444-3.444H164.2c-1.951 0-3.443 1.493-3.443 3.444Zm.2 6.687a3.444 3.444 0 1 1-6.888 0 3.444 3.444 0 0 1 6.888 0Zm3.243 10.13h3.243v3.244c0 1.951 1.493 3.443 3.444 3.443h6.687c1.951 0 3.444-1.492 3.444-3.443 0-1.952-1.493-3.444-3.444-3.444h-3.243v-3.243c0-1.952-1.493-3.444-3.444-3.444H164.2c-1.951 0-3.443 1.492-3.443 3.444 0 1.951 1.492 3.443 3.443 3.443ZM32.37 47.749H15.32A14.983 14.983 0 0 1 .273 32.703v-17.05C.273 7.627 6.96.94 14.984.94h17.052A14.983 14.983 0 0 1 47.08 15.986v17.052c0 8.024-6.687 14.71-14.71 14.71ZM40.394 31.7V16.99c0-5.35-4.012-9.362-9.361-9.362H16.322c-5.015 0-9.362 4.346-9.362 9.361V31.7c0 5.35 4.012 9.362 9.362 9.362h14.71c5.016 0 9.362-4.346 9.362-9.362ZM33.707 20v9.027c0 2.674-2.674 5.35-5.683 5.35H19.33c-3.344 0-5.684-2.341-5.684-5.685V20c0-3.01 2.675-5.684 5.684-5.684h9.027c3.009 0 5.35 2.34 5.35 5.684Zm145.773 27.75h-17.052a14.983 14.983 0 0 1-15.045-15.046v-17.05c0-8.025 6.687-14.712 14.711-14.712h17.051a14.983 14.983 0 0 1 15.046 15.045v17.052c0 8.024-6.687 14.71-14.711 14.71Zm8.024-16.049V16.99c0-5.35-4.012-9.362-9.362-9.362h-14.711c-5.015 0-9.361 4.346-9.361 9.361V31.7c0 5.35 4.012 9.362 9.361 9.362h14.711c5.015 0 9.362-4.346 9.362-9.362ZM180.817 20v9.027c0 2.674-2.675 5.35-5.684 5.35h-8.693c-3.343 0-5.683-2.341-5.683-5.685V20c0-3.01 2.674-5.684 5.683-5.684h9.027c3.01 0 5.35 2.34 5.35 5.684ZM32.37 194.858H15.32A14.983 14.983 0 0 1 .273 179.813v-17.051c0-8.025 6.687-14.711 14.711-14.711h17.052a14.982 14.982 0 0 1 15.045 15.045v17.051c0 8.024-6.687 14.711-14.71 14.711Zm8.024-16.048v-14.711c0-5.349-4.012-9.362-9.361-9.362H16.322c-5.015 0-9.362 4.347-9.362 9.362v14.711c0 5.349 4.012 9.361 9.362 9.361h14.71c5.016 0 9.362-4.346 9.362-9.361Zm-6.687-11.702v9.027c0 2.675-2.674 5.35-5.683 5.35H19.33c-3.344 0-5.684-2.341-5.684-5.684v-8.693c0-3.009 2.675-5.684 5.684-5.684h9.027c3.009 0 5.35 2.341 5.35 5.684Zm87.576-80.793L99.916 97.792h-.005l21.367 11.476-3.592 6.941-19.566-7.955a2.062 2.062 0 0 0-1.566 0l-19.565 7.955-3.592-6.941 21.367-11.476-21.367-11.477 3.592-6.936 19.57 7.95a2.069 2.069 0 0 0 1.567 0l19.565-7.955 3.592 6.941Z" fill="#ffffff"/></svg>