<?xml version="1.0" encoding="utf-8"?>
<!-- Generator: Adobe Illustrator 25.2.1, SVG Export Plug-In . SVG Version: 6.00 Build 0)  -->
<svg version="1.1" id="Capa_1" xmlns="http://www.w3.org/2000/svg" xmlns:xlink="http://www.w3.org/1999/xlink" x="0px" y="0px"
	 viewBox="0 0 74.3 74.3" style="enable-background:new 0 0 74.3 74.3;" xml:space="preserve">
<g>
	<path class="st0" d="M58.4,36.4C71.6,23.2,71.8,3.9,71.8,3.1c0-0.2-0.1-0.3-0.2-0.4s-0.2-0.2-0.4-0.2c-0.8,0-20.1,0.2-33.3,13.3
		L24.7,29c-3.1,3.1-4.5,7.4-4.2,11.5c3.7-2,8.4-1.4,11.5,1.7c3.1,3.1,3.7,7.8,1.7,11.5c4.1,0.4,8.4-1.1,11.5-4.2L58.4,36.4z
		 M46.1,28.1c-2.9-2.9-2.9-7.7,0-10.6c2.9-2.9,7.7-2.9,10.6,0s2.9,7.7,0,10.6C53.8,31.1,49,31.1,46.1,28.1z"/>
	<path class="st0" d="M28.8,45.5c-2-2-5.4-2-7.4,0c-0.9,0.9-3.2,4.9-6.7,13.4c-0.1,0.2-0.1,0.5,0.1,0.6c0.2,0.2,0.4,0.2,0.6,0.1
		c8.5-3.5,12.5-5.8,13.4-6.7C30.8,50.8,30.8,47.5,28.8,45.5z"/>
	<path class="st0" d="M44.4,59v-3.1c-3.9,2.2-8.3,2.9-12.6,2.2l-2.2,2.2c-0.5,0.5-0.8,1.3-0.8,2v6.6c0,0.8,0.3,1.5,0.8,2
		c0.3,0.3,0.6,0.5,0.9,0.6c1.1,0.4,2.3,0.2,3.1-0.6l9.9-9.9C44.1,60.5,44.4,59.8,44.4,59z"/>
	<path class="st0" d="M18.4,29.8h-3.1c-0.8,0-1.5,0.3-2,0.8l-9.9,9.9c-0.8,0.8-1.1,2.1-0.6,3.1c0.1,0.4,0.4,0.7,0.6,0.9
		c0.5,0.5,1.2,0.8,2,0.8h6.6c0.8,0,1.5-0.3,2-0.8l2.2-2.2C15.4,38.2,16.1,33.7,18.4,29.8z"/>
</g>
</svg>
